<?xml version="1.0" encoding="UTF-8" standalone="no"?>
<!-- Created with Inkscape (http://www.inkscape.org/) -->
<svg xmlns:dc="http://purl.org/dc/elements/1.1/" xmlns:cc="http://creativecommons.org/ns#" xmlns:rdf="http://www.w3.org/1999/02/22-rdf-syntax-ns#" xmlns:svg="http://www.w3.org/2000/svg" xmlns="http://www.w3.org/2000/svg" xmlns:sodipodi="http://sodipodi.sourceforge.net/DTD/sodipodi-0.dtd" xmlns:inkscape="http://www.inkscape.org/namespaces/inkscape" version="1.1" width="142" height="144" viewBox="0 0 142 144" id="Layer_1" xml:space="preserve" inkscape:version="0.48.4 r9939" sodipodi:docname="sad-forever-alone-face-only.svg"><sodipodi:namedview pagecolor="#666666" bordercolor="#666666" borderopacity="1" objecttolerance="10" gridtolerance="10" guidetolerance="10" inkscape:pageopacity="0.65098039" inkscape:pageshadow="2" inkscape:window-width="1600" inkscape:window-height="842" id="namedview3392" showgrid="false" inkscape:zoom="4.6354778" inkscape:cx="102.93246" inkscape:cy="70.682864" inkscape:window-x="-2" inkscape:window-y="-3" inkscape:window-maximized="1" inkscape:current-layer="Layer_1"/><metadata id="metadata3687"><rdf:RDF><cc:Work rdf:about=""><dc:format>image/svg+xml</dc:format><dc:type rdf:resource="http://purl.org/dc/dcmitype/StillImage"/><dc:title/></cc:Work></rdf:RDF></metadata><defs id="defs3685"/><path d="m 43.47,9.73 c 3.36,-1.75 6.9,-3.13 10.58,-4.06 6.69,-0.34 13.48,0.03 19.97,1.77 3.23,2.13 5.92,5.08 8.26,8.16 2.08,4.53 2.681,9.99 6.641,13.46 5.23,5.5 13.311,5.28 20,7.71 5.971,1.74 10.71,6.01 15.09,10.23 4.99,5.13 10.35,10.61 11.85,17.88 0.69,3.99 4.111,6.91 4.351,11.05 0.56,7.131 0.06,14.95 -4.34,20.9 -2.99,4.27 -4.851,9.17 -7.56,13.59 -3.08,3.58 -5.471,7.68 -8.61,11.21 -1.99,2.181 -2.13,5.29 -3.4,7.84 -3.19,4.061 -7.21,7.561 -11.81,9.931 -4.37,1.52 -9.08,1.63 -13.6,2.55 -6.211,1.36 -12.58,1.5 -18.91,1.37 -5.96,-0.09 -12.17,0.479 -17.84,-1.711 -4.15,-1.5 -8.66,-1.879 -12.61,-3.939 -3.54,-1.779 -7.49,-3 -10.35,-5.87 -3.23,-2.95 -5.5,-6.7 -8.01,-10.229 -2.22,-2.69 -4.81,-5.04 -7.17,-7.61 -1.8,-1.96 -4.65,-2.51 -6.37,-4.54 -2.64,-3.17 -5.03,-6.561 -7.93,-9.51 -0.15,-7 -0.54,-14.13 1.04,-21 1.51,-8.54 3.15,-17.12 2.99,-25.84 1.19,-7.82 3.01,-15.67 6.46,-22.83 4.03,-5.67 8.86,-11.05 15.26,-14.08 C 32.18,12.68 38.01,11.51 43.47,9.73 M 59.61,9.28 c -3.69,-0.99 -7.03,1.34 -10.5,2.16 -7.16,1.9 -14.09,4.48 -20.75,7.67 -6.87,5.25 -14.03,11.45 -15.84,20.32 -3.66,7.03 -1.86,15.17 -3.78,22.62 3.39,-0.21 2.35,4.06 4.45,5.68 1.16,1.82 5.2,2.21 4.37,4.82 -2.15,-0.92 -4.1,-2.26 -6.01,-3.59 -0.68,-0.09 -2.02,-0.26 -2.7,-0.34 0.7,-0.17 2.1,-0.5 2.81,-0.67 C 10.33,66.65 10.35,64.77 9.77,63.13 7.8,61.82 8.17,64.8 8,65.95 8.1,73.46 6.25,80.82 4.04,87.939 3.28,91.2 2.77,94.87 3.89,98.07 c 3.2,3.74 6.59,7.359 10.04,10.89 6.37,5 11.11,11.62 16.96,17.17 2.57,3.82 7.73,4.04 11.77,3.06 -1.08,-2.899 -4.78,-3.789 -6.77,-6.09 2.64,1.26 4.93,3.141 7.54,4.461 -0.79,3.709 4.76,2.67 6.72,4.52 -1.51,0.41 -2.88,-0.471 -4.27,-0.891 -3.04,-1.27 -6.4,-0.72 -9.58,-0.75 3.71,3.761 9.29,4.23 13.91,6.36 3.22,0.98 6.22,3.12 9.71,2.86 6.32,-0.13 12.66,0.18 18.971,-0.15 6.83,-1.76 14,-1.449 20.959,-2.359 4.98,-2.521 9.291,-6.181 13.95,-9.211 0.851,-4.01 3.261,-7.399 5.761,-10.549 3.149,-3.851 5.979,-7.961 8.58,-12.19 1.859,-4.22 5.149,-7.931 5.689,-12.63 4.9,-5 3.13,-12.43 3.439,-18.74 -3.59,-7.25 -7.569,-14.33 -11.789,-21.22 -3.82,-3.88 -8.271,-7.16 -12.07,-11.11 -6.86,-4.55 -15.42,-4.24 -23.131,-6.28 -0.829,0.46 -2.479,1.37 -3.309,1.83 0.35,-1.07 1.059,-3.19 1.409,-4.25 -2.04,-3.89 -5.7,-6.71 -7.33,-10.81 -0.35,-0.11 -1.05,-0.31 -1.399,-0.41 l -0.381,1.41 c -1.08,-1.24 -2.149,-2.49 -3.06,-3.86 1.39,0.23 2.351,0.97 2.88,2.22 0.49,-0.45 0.98,-0.9 1.471,-1.35 -1.91,-5.7 -7.701,-7.92 -11.551,-11.91 C 65.82,7.92 62.63,8.18 59.61,9.28 z" id="path3537" style="fill:#010101"/><path d="m 53.93,21.34 c 2.33,-2.14 4.65,-4.52 7.74,-5.51 -0.25,0.33 -0.74,0.98 -0.98,1.3 -2.53,0.98 -4.08,3.63 -6.76,4.21 z" id="path3541" style="fill:#040404"/><path d="m 61.8,19.33 c 0.48,-0.04 1.43,-0.12 1.9,-0.15 -3.83,3.8 -7.82,8.56 -13.74,8.48 -3.75,-1.14 -7.51,-2.22 -11.46,-2.23 3.03,-1.36 6.34,0.26 9.48,0.07 3.59,0.45 6.22,-2.32 9.19,-3.78 -1.17,2.521 -4.42,2.71 -5.67,5.12 4.47,-0.53 8.04,-3.8 10.3,-7.51 m -12.46,6.66 c 0.1,3.34 2.97,-1.56 0,0 z" id="path3543" style="fill:#040404"/><path d="m 50.08,21.45 c 0.51,-0.25 1.52,-0.75 2.02,-0.99 -0.27,0.41 -0.8,1.24 -1.07,1.65 -5.16,0.42 -10.55,-0.65 -15.29,2 3.75,-4.07 9.49,-2.32 14.34,-2.66 z" id="path3545" style="fill:#040404"/><path d="m 66.48,25.36 c 1.5,-1.65 3.91,-1.24 5.89,-1 -3.43,0.38 -6.7,1.91 -8.32,5.13 -0.09,0.26 -0.28,0.78 -0.37,1.04 -0.11,1 -0.31,3 -0.42,4 -1.75,-3.29 0.82,-6.98 3.22,-9.17 z" id="path3547" style="fill:#040404"/><path d="m 64.05,29.49 c 2.43,0.28 3.73,-2.93 6.11,-2.49 l -0.02,1.26 c -0.79,0.86 -1.58,1.72 -2.36,2.59 0.02,0.73 0.08,2.19 0.11,2.92 -0.28,0.37 -0.84,1.13 -1.12,1.5 -2.12,-0.7 -0.65,-3.55 -1.19,-5.12 l -1.9,0.38 c 0.09,-0.26 0.28,-0.78 0.37,-1.04 m 2.29,0.74 c 0.54,0.53 0.54,0.53 0,0 z" id="path3551" style="fill:#9c9c9c"/><path d="m 70.14,28.26 c 1.33,-0.47 2.709,-0.74 4.15,-0.79 1.11,0.91 2.479,1.75 2.33,3.45 L 78,30.03 c -1.12,1.12 -1.971,2.43 -2.529,3.93 l 2.309,-0.31 c -0.25,0.83 -0.549,1.63 -0.889,2.42 L 76.76,36.36 C 75.141,35.07 73.55,33.75 71.811,32.62 L 71.21,31.83 c 0.74,-0.11 2.21,-0.32 2.95,-0.42 -0.1,-0.38 -0.301,-1.12 -0.4,-1.49 -1.22,0.48 -2.44,0.95 -3.61,1.52 0.15,1.31 0.46,2.59 0.75,3.87 1.129,0.79 2.31,1.49 3.491,2.2 -1.261,0.56 -2.521,1.11 -3.781,1.69 l -0.19,0.08 C 70.14,38.81 69.58,37.87 69.3,37.4 68.51,36.31 68.03,35.1 67.89,33.77 67.86,33.04 67.8,31.58 67.78,30.85 c 0.78,-0.87 1.57,-1.73 2.36,-2.59 z" id="path3553"/><path d="m 23.26,28.78 c 1.68,0.32 2.82,1.64 4.1,2.65 0.03,1.19 0.06,2.39 0.1,3.58 -0.67,0.61 -1.34,1.22 -2,1.83 0.85,-2.95 0.3,-6.09 -2.2,-8.06 z" id="path3555" style="fill:#040404"/><path d="m 78,30.03 c 0.51,-0.32 1.51,-0.95 2.01,-1.271 1.33,2.18 -0.369,3.88 -2.23,4.89 l -2.309,0.31 C 76.029,32.46 76.88,31.15 78,30.03 z" id="path3557" style="fill:#828282"/><path d="m 31.63,31.92 c 0.19,-1.25 1.93,-2.23 3.04,-1.5 1.07,1.66 -2.49,3.37 -3.04,1.5 z" id="path3559" style="fill:#040404"/><path d="m 36.96,32.52 c 2.17,-1.13 4.55,-1.79 6.96,-2.19 0.97,0.94 1.81,2.01 2.71,3.03 -0.1,3.22 0.44,6.39 0.71,9.59 1.08,-0.65 2.17,-1.29 3.27,-1.89 -1.95,4.52 -5.39,8.4 -9.08,11.65 -0.4,-0.22 -1.18,-0.67 -1.58,-0.89 l -0.86,1.33 c 0.94,0.7 1.88,1.42 2.85,2.09 3.15,-3.271 7.93,-4.85 10.44,-8.69 -0.14,-2.47 2.06,-3.85 3.65,-5.33 -0.8,2.55 -2.54,4.86 -2.39,7.64 2.12,-0.41 2.07,-3.05 3.88,-3.71 0.74,1.32 1.34,2.71 2.21,3.95 -0.67,0.24 -2.01,0.7 -2.68,0.94 l 0.9,-2.36 c -1.38,1.8 -3.77,2.69 -5.48,0.8 -3.89,3.12 -8.37,5.38 -12.15,8.63 2.12,-0.29 4.34,-0.59 6.31,0.46 0.68,-0.65 1.37,-1.29 2.07,-1.91 l -0.49,1.9 c 1.42,0.27 2.84,0.55 4.26,0.83 0.07,-0.59 0.22,-1.78 0.29,-2.37 0.31,0.9 0.61,1.79 0.92,2.69 1.07,-0.56 2.01,-1.31 2.78,-2.24 0.41,0.54 1.24,1.62 1.66,2.16 0.33,-0.83 0.65,-1.66 0.98,-2.49 0.16,0.55 0.48,1.65 0.64,2.19 1.54,-1.25 3.3,-0.55 4.97,-0.02 0.11,-3.06 -2.05,-5.49 -3.03,-8.26 0.25,-0.93 0.48,-1.87 0.71,-2.81 0.49,-0.28 1.48,-0.82 1.97,-1.1 -0.94,0.09 -2.82,0.27 -3.76,0.35 -0.47,-3.1 1.87,-2.08 3.53,-1.28 -0.07,-0.66 -0.19,-1.96 -0.25,-2.62 -0.96,-0.59 -1.9,-1.21 -2.78,-1.92 2.57,-0.87 4.18,1.4 6.03,2.71 7,1.6 13.79,-1.82 20.78,-0.82 l 0.67,0.04 c 1.22,-0.01 2.439,-0.05 3.65,-0.12 0.379,0.24 1.119,0.72 1.5,0.96 -5.78,-0.52 -11.65,-0.33 -17.351,0.8 -3.729,0.39 -7.64,0.6 -11.19,-0.86 0.14,1.53 0.25,3.06 0.4,4.59 -1.17,0.23 -2.35,0.45 -3.53,0.67 1.35,3.01 2.77,5.99 3.8,9.13 2.49,-0.65 4.99,-1.21 7.531,-1.62 -1.15,-0.81 -2.301,-1.63 -3.44,-2.45 2.36,0.63 4.67,1.44 6.989,2.23 -1.26,-1.16 -2.64,-2.15 -4.069,-3.07 1.93,-0.37 3.851,-0.81 5.81,-1.01 -0.88,0.34 -2.65,1.02 -3.539,1.36 0.689,0.37 1.379,0.74 2.069,1.11 0.95,-0.32 2.851,-0.94 3.8,-1.26 -0.75,-1.05 -1.48,-2.12 -2.199,-3.19 1.64,0.86 3.25,1.79 4.869,2.7 0.35,-0.8 0.83,-1.56 1.041,-2.42 C 84,49.93 82.58,49.49 81.86,49.27 c 1.131,-0.56 2.24,-1.13 3.341,-1.73 0.22,0.42 0.649,1.26 0.87,1.68 l 0.59,0.74 1.96,-0.84 c 0.03,-0.2 0.08,-0.6 0.11,-0.8 -0.28,-0.15 -0.851,-0.47 -1.131,-0.62 0.811,-0.77 1.601,-1.56 2.381,-2.36 0.47,0.33 1.39,1 1.859,1.34 1.141,-0.69 2.301,-1.36 3.48,-2 0.209,0.26 0.65,0.77 0.859,1.02 -0.34,1.69 -0.76,3.36 -1.15,5.04 0.361,-0.11 1.091,-0.32 1.451,-0.43 l 0.189,0.06 c -1.25,1.51 -2.58,2.96 -4.02,4.29 0.3,1.29 0.709,2.56 1.09,3.84 4.38,-1.62 3.51,-7.3 7.38,-9.48 -0.62,1.28 -1.351,2.5 -2.12,3.69 -1.07,3.92 -4.32,6.41 -6.87,9.35 0.261,1.46 0.55,2.93 0.88,4.38 3.51,-2.77 5.85,-6.51 7.811,-10.47 -0.01,2.38 -1.62,4.23 -2.541,6.311 -1.199,1.229 -2.449,2.439 -3.709,3.61 -0.301,0.25 -0.891,0.76 -1.18,1.01 l -0.67,0.61 c -2.49,0.86 -5.141,1.11 -7.66,1.89 -0.011,-0.25 -0.041,-0.75 -0.051,-1.01 2.61,-0.55 5.23,-1.02 7.881,-1.31 -0.44,-1.5 -0.9,-2.99 -1.4,-4.47 -2.311,1.64 -4.61,3.32 -6.99,4.87 -3.4,0.83 -6.42,2.65 -9.641,3.95 -8.879,1.72 -16.949,-3 -25.25,-5.19 6.51,0.24 12.29,3.79 18.64,4.94 0,-0.65 0.01,-1.96 0.02,-2.61 0.99,3.08 4.21,2.28 6.63,2.14 2.629,-1.27 5.189,-2.71 8,-3.57 0.939,-0.38 1.879,-0.76 2.82,-1.14 2.629,-2.12 5.579,-3.85 7.809,-6.43 -0.84,-1.34 -1.35,-2.82 -1.389,-4.4 -1.49,1.13 -2.761,2.53 -4.32,3.56 -2.37,0.96 -4.99,0.83 -7.471,1.24 1.32,1.2 2.32,2.69 3.041,4.32 -0.951,-0.7 -1.9,-1.39 -2.861,-2.08 -0.079,-0.51 -0.25,-1.54 -0.34,-2.06 l -2.719,0.82 c -0.07,0.19 -0.201,0.561 -0.271,0.75 1.159,0.96 2.35,1.94 2.93,3.39 -1.11,-0.71 -2.18,-1.47 -3.229,-2.27 l -1.021,1.01 c -0.12,-0.29 -0.351,-0.87 -0.46,-1.17 l -0.27,-0.58 c -0.301,0.19 -0.891,0.55 -1.19,0.73 -2.33,-0.62 -4.59,0.32 -6.86,0.73 -1.5,-0.26 -2.88,-0.92 -4.33,-1.37 -0.47,1.48 -0.94,2.97 -1.62,4.37 0.16,-1.26 0.47,-3.79 0.62,-5.05 -1.24,0.93 -2.52,1.82 -3.82,2.68 0.54,-0.72 1.63,-2.15 2.18,-2.87 -5.67,1.24 -11.38,-0.11 -17.09,0.02 -2.02,-0.08 -3.27,-2.02 -4.77,-3.09 0.09,1.7 0.38,3.48 -0.58,5.01 -0.37,-3.37 -0.63,-6.97 1.24,-10 -1.31,0.021 -2.62,0.04 -3.93,0.05 -0.88,-1.56 -1.89,-3.04 -2.83,-4.56 1.1,0.72 2.09,1.58 3.05,2.49 1.9,0.05 3.8,0.16 5.7,0 2.11,-1.19 4.07,-2.78 5.16,-4.99 -1.04,-2.06 -3.19,-0.35 -4.77,-0.09 l 0.54,-0.82 c -1.34,-0.04 -2.68,-0.1 -4.02,-0.17 0.3,0.52 0.9,1.57 1.2,2.09 -1.85,-0.32 -2.33,-1.38 -1.42,-3.19 l -1.42,-0.31 c 0.1,1.15 0.32,3.45 0.42,4.59 -1.01,-1.36 -1.97,-2.76 -2.88,-4.19 L 36.1,45 c -1.74,-3.06 -1.02,-6.39 -0.55,-9.64 0.76,-0.37 2.28,-1.1 3.04,-1.47 -0.54,-0.46 -1.09,-0.91 -1.63,-1.37 m 8.73,3.13 c -0.53,-1.34 -1.06,-2.68 -1.59,-4.03 -1.95,0.05 -3.9,0.19 -5.84,0.43 2.41,1.34 4.98,2.35 7.43,3.6 m -8.06,1.54 c 1.56,1.43 2.72,3.08 1.91,5.26 l -0.63,1.57 c 2.13,0.76 6.65,1.11 5.1,-2.48 0.15,-1.19 0.28,-2.39 0.4,-3.59 -1.47,-0.8 -2.94,-1.6 -4.37,-2.46 -0.8,0.57 -1.61,1.14 -2.41,1.7 m 52.39,10.15 c 0.35,0.35 0.35,0.35 0,0 m 2.88,3.93 c 1.31,-0.99 1.279,-1.87 -0.08,-2.64 -1.39,0.98 -1.37,1.86 0.08,2.64 m -4.45,1.44 c -2.87,-1.36 -2.88,2.59 -0.78,3.31 0.2,-0.67 0.6,-1.99 0.801,-2.65 1.529,0.38 2.989,-0.25 3.35,-1.83 -1.391,-1.63 -2.571,0 -3.371,1.17 m -4.41,1.7 c -1.649,2.43 -4.8,2.68 -7.22,3.99 3.119,-1.02 6.3,-1.83 9.609,-1.74 C 85.66,55.88 84.87,55.12 84.04,54.41 m -44.67,0.45 -0.57,0.72 c 0.16,2.62 2.73,-0.28 0.57,-0.72 m 25.49,5.55 c 0.52,0.18 1.54,0.54 2.06,0.72 2.71,-1.33 5.95,-1 8.561,-2.57 -3.651,-0.01 -6.991,1.67 -10.621,1.85 z" id="path3561" style="fill:#040404"/><path d="m 66.34,30.23 c 0.54,0.53 0.54,0.53 0,0 z" id="path3563" style="fill:#3d3d3d"/><path d="m 53.12,31 c 2.75,1.85 4.61,5.06 6.06,7.93 l -1.14,-1.51 c -0.59,0.56 -1.18,1.13 -1.77,1.69 0.04,-0.72 0.13,-2.16 0.17,-2.89 C 55.19,34.58 54.06,32.84 53.12,31 z" id="path3567" style="fill:#040404"/><path d="m 71.811,32.62 c 1.739,1.13 3.33,2.45 4.949,3.74 -0.23,0.51 -0.689,1.52 -0.92,2.03 C 75.481,38.17 74.75,37.73 74.391,37.51 73.21,36.8 72.03,36.1 70.9,35.31 c 0.47,-0.29 1.39,-0.89 1.85,-1.19 l -0.939,-1.5 z" id="path3571" style="fill:#3c48b7"/><path d="m 76.76,36.36 0.131,-0.29 c 1.09,0.31 1.709,1.07 1.859,2.26 -0.279,-0.05 -0.83,-0.15 -1.109,-0.2 -0.66,0.3 -2,0.88 -2.66,1.17 l 0.1,0.91 c 0.82,-0.28 2.449,-0.83 3.27,-1.1 l 0.311,1.48 c -3.49,0.62 -7.96,1.56 -10.94,-0.89 0.39,-0.58 1.19,-1.72 1.58,-2.3 0.28,0.47 0.84,1.41 1.12,1.88 l 0.01,0.01 c 0.04,-0.02 0.14,-0.06 0.18,-0.09 1.26,-0.58 2.52,-1.13 3.781,-1.69 0.359,0.22 1.09,0.66 1.449,0.88 0.228,-0.51 0.687,-1.52 0.918,-2.03 z" id="path3575" style="fill:#676871"/><path d="m 77.641,38.13 c 0.279,0.05 0.83,0.15 1.109,0.2 1.58,0.31 3.17,0.58 4.75,0.9 1.82,0.46 3.65,0.92 5.46,1.43 -3.431,0.03 -6.87,0.21 -10.3,-0.07 l -0.311,-1.48 c -0.82,0.27 -2.449,0.82 -3.27,1.1 l -0.1,-0.91 c 0.662,-0.29 2.001,-0.87 2.662,-1.17 z" id="path3577" style="fill:#afb8f2"/><path d="m 84.8,39.18 c 3.72,-0.54 7.49,-0.27 11.229,-0.29 2.961,0.02 5.48,1.8 8.091,2.96 0.72,0.89 1.46,1.78 2.22,2.64 2.36,4.01 0.73,8.77 -0.18,12.96 -1.12,-2.77 1.15,-5.55 0.58,-8.43 0.3,-2.83 -1.79,-4.8 -3.54,-6.66 -2.37,1.98 -3.88,5.07 -6,6.98 -0.16,-1.77 -0.33,-3.54 -0.591,-5.29 L 96.39,42.54 c 1.569,-0.28 3.139,-0.61 4.699,-1 -3.15,-3.29 -7.99,-1.41 -11.98,-2.06 -1.439,-0.1 -2.869,-0.22 -4.309,-0.3 z" id="path3579" style="fill:#040404"/><path d="m 30.3,39.59 c 0.65,-0.03 1.97,-0.1 2.63,-0.14 -0.18,0.38 -0.53,1.14 -0.71,1.52 -1.43,0.64 -2.82,1.37 -4.23,2.061 0.75,-1.161 1.53,-2.301 2.31,-3.441 z" id="path3581" style="fill:#040404"/><path d="m 41.56,39.3 c 1.67,-0.53 2.24,0.02 1.7,1.63 -1.65,0.5 -2.22,-0.04 -1.7,-1.63 z" id="path3583" style="fill:#010101"/><path d="m 70.42,39.28 0.19,-0.08 c -0.04,0.03 -0.14,0.07 -0.18,0.09 l -0.01,-0.01 z" id="path3585" style="fill:#a0a0a0"/><path d="m 83.5,39.23 1.3,-0.05 c 1.44,0.08 2.87,0.2 4.31,0.3 -0.029,0.6 -0.08,1.8 -0.109,2.4 2.25,0.1 4.49,0.23 6.74,0.32 0.22,0.46 0.65,1.38 0.869,1.85 0.261,1.75 0.431,3.52 0.591,5.29 l -0.72,0.97 c -0.36,0.11 -1.09,0.32 -1.451,0.43 0.391,-1.68 0.811,-3.35 1.15,-5.04 -0.209,-0.25 -0.65,-0.76 -0.859,-1.02 -0.4,-0.31 -1.19,-0.93 -1.59,-1.24 -0.381,-0.24 -1.121,-0.72 -1.5,-0.96 -1.211,0.07 -2.431,0.11 -3.65,0.12 l -0.67,-0.04 1.05,-1.9 C 87.15,40.15 85.32,39.69 83.5,39.23 z" id="path3587" style="fill:#40499c"/><path d="m 39.54,42.45 c 1.47,-0.38 2.97,-0.65 4.47,-0.91 1.55,3.59 -2.97,3.24 -5.1,2.48 l 0.63,-1.57 z" id="path3591" style="fill:#3746ed"/><path d="m 58.11,42.26 c 1.65,-0.54 2.19,-0.01 1.63,1.62 -1.64,0.54 -2.19,0.01 -1.63,-1.62 z" id="path3593" style="fill:#b8b8b8"/><path d="m 41.31,46.16 c 1.58,-0.26 3.73,-1.97 4.77,0.09 -1.09,2.21 -3.05,3.8 -5.16,4.99 -0.07,-1.6 -0.14,-3.2 -0.29,-4.79 l 0.68,-0.29 z" id="path3597" style="fill:#a8a9af"/><path d="m 90.02,47.34 c 0.35,0.35 0.35,0.35 0,0 z" id="path3599" style="fill:#f6f6f6"/><path d="m 14.29,52.86 c 1.15,-2.44 3.53,-4.07 5.98,-5.01 -1.8,1.88 -3.76,3.64 -5.98,5.01 z" id="path3601" style="fill:#040404"/><path d="m 37.54,48.76 c 0.24,-0.28 0.72,-0.83 0.96,-1.1 1,0.74 1.1,1.52 0.3,2.34 -0.31,-0.31 -0.95,-0.93 -1.26,-1.24 z" id="path3603"/><path d="m 65.42,50.97 c 1.34,-0.74 2.8,1.39 2.27,2.59 -1.26,0.55 -2.93,-1.39 -2.27,-2.59 z" id="path3607" style="fill:#040404"/><path d="m 39.37,54.86 c 2.16,0.44 -0.41,3.34 -0.57,0.72 l 0.57,-0.72 z" id="path3613" style="fill:#6674cc"/><path d="m 31.16,61.96 c 0.33,-1.83 0.58,-3.71 1.5,-5.35 0.23,2.96 -1,5.69 -1.56,8.53 -0.02,1.95 2.08,2.81 3.37,3.84 0.8,0.6 1.46,1.33 1.98,2.19 -3.47,-1.38 -8.06,-5.18 -5.29,-9.21 z" id="path3615" style="fill:#040404"/><path d="m 38.77,62.08 c 3.57,1.63 6.36,4.62 10.29,5.65 -4.11,-0.2 -7.84,-2.38 -10.29,-5.65 z" id="path3619" style="fill:#040404"/><path d="m 98.08,66.69 c -0.6,-1.26 1.311,-3.48 2.62,-2.64 0.72,1.42 -1.22,3.33 -2.62,2.64 z" id="path3621" style="fill:#040404"/><path d="m 38.99,65.52 c 1.47,-1.12 3.08,2.38 2.23,3.58 -0.73,-0.62 -1.51,-1.19 -2.26,-1.79 0.01,-0.45 0.02,-1.34 0.03,-1.79 z" id="path3623" style="fill:#6271fd"/><path d="m 116.66,65.12 c 0.3,0.04 0.9,0.11 1.199,0.15 -2.049,7.919 -9.149,13.48 -10.689,21.66 -1.949,4.36 -3.67,8.79 -4.699,13.461 -0.65,-5.171 2.619,-9.591 4.199,-14.25 1.46,-5.98 5.32,-10.921 8.63,-15.98 1.05,-1.481 1.27,-3.271 1.36,-5.041 z" id="path3625" style="fill:#040404"/><path d="m 36.83,66.94 c 0.54,0.09 1.6,0.28 2.13,0.37 0.75,0.6 1.53,1.17 2.26,1.79 1.07,1.31 2.04,2.7 2.87,4.169 -0.44,-0.399 -1.32,-1.189 -1.76,-1.58 -0.31,-0.34 -0.95,-1.03 -1.27,-1.37 C 39.8,69.02 38.27,68.03 36.83,66.94 z" id="path3627"/><path d="M 93.391,66.9 C 93.68,66.65 94.27,66.14 94.571,65.89 93.6,70.23 91.77,74.46 93.08,79 c -0.551,0.01 -1.63,0.02 -2.17,0.02 0,-3.899 0.311,-7.87 1.811,-11.51 l 0.67,-0.61 z" id="path3629" style="fill:#8591fb"/><path d="m 41.06,70.32 c 0.32,0.34 0.96,1.03 1.27,1.37 -0.14,4.38 1.73,8.48 1.84,12.86 -0.5,-0.149 -1.49,-0.45 -1.99,-0.59 0.01,-4.59 -1.58,-9.04 -1.12,-13.64 z" id="path3631" style="fill:#909cfd"/><path d="m 9.64,71.96 c 2.51,0.32 5.05,0.87 7.26,2.149 -0.43,1.051 -0.83,2.11 -1.25,3.16 C 14.85,74.29 12.29,73.01 9.64,71.96 z" id="path3633" style="fill:#040404"/><path d="m 46.65,71.94 c 3.88,3.06 8.76,5.919 13.85,4.24 -1.75,0.891 -3.79,2.18 -5.72,0.98 -2.82,-1.4 -6.89,-1.93 -8.13,-5.22 z" id="path3635" style="fill:#040404"/><path d="m 104.189,72.24 c 0.532,0.56 0.532,0.56 0,0 z" id="path3637" style="fill:#939393"/><path d="m 21.52,78.72 c -0.69,-1.89 0.13,-3.8 0.6,-5.63 2.19,2.801 1.5,6.32 1.18,9.58 -0.24,0.03 -0.71,0.1 -0.95,0.13 0.42,-2.479 0.59,-4.989 0.73,-7.5 l -0.98,0.011 c -0.14,0.859 -0.43,2.559 -0.58,3.409 z" id="path3639" style="fill:#040404"/><path d="m 133.58,75.12 c 1.82,-0.34 2.72,4.36 0.83,4.64 -0.95,-1.199 -1.29,-3.18 -0.83,-4.64 z" id="path3641" style="fill:#040404"/><path d="m 103.12,78.16 c 3.3,0.22 -1.58,2.99 0,0 z" id="path3643" style="fill:#858585"/><path d="m 8.24,85.03 c 0.21,-1.33 1.69,-2.24 2.93,-2.39 1.98,1.23 -2.04,4.52 -2.93,2.39 z" id="path3645" style="fill:#040404"/><path d="m 84.13,83.13 c 1.63,-0.54 2.181,0.011 1.681,1.64 -1.631,0.541 -2.191,-0.01 -1.681,-1.64 z" id="path3647" style="fill:#dcdcdc"/><path d="m 67.19,84.22 c 0.56,0.48 0.56,0.48 0,0 z" id="path3649" style="fill:#b5b5b5"/><path d="m 10.38,88.311 c 1.49,-1.121 2.52,-2.92 4.45,-3.371 -2.3,3.201 -5.93,4.98 -8.56,7.86 0.47,-2.17 2.54,-3.191 4.11,-4.489 z" id="path3651" style="fill:#040404"/><path d="m 39.29,85.95 c 0.9,0.979 1.7,2.05 2.51,3.12 0.98,-0.311 1.96,-0.631 2.96,-0.891 -0.22,0.971 -0.48,1.93 -0.72,2.891 2.37,4.13 4.81,8.229 7.74,12 1.83,2.779 4.47,4.99 5.93,8.029 -5.69,-6.17 -11.11,-12.92 -14.37,-20.72 l -0.85,0.181 0.22,-0.86 c -2.08,-0.12 -2.74,-2.17 -3.42,-3.75 z" id="path3653" style="fill:#040404"/><path d="m 64.31,89.17 c 2.95,-1.609 0.22,3.33 0,0 z" id="path3655" style="fill:#bfbfbf"/><path d="m 111.189,90.13 c 3.051,-1.4 0,3.34 0,0 z" id="path3657" style="fill:#c7c7c7"/><path d="m 8.81,100.02 c 2.29,-3.289 5.38,-6.439 9.1,-8 -2.73,2.99 -6.13,5.26 -9.1,8 z" id="path3659" style="fill:#040404"/><path d="m 23.82,92.9 c 4.62,3.01 2.78,9.439 2.21,14 -0.61,-1.391 -1.27,-2.75 -2.01,-4.08 -0.43,2.729 -0.57,5.52 -0.33,8.279 1.5,4.07 5.93,5.681 8.42,9 -2.81,-1.01 -4.62,-3.6 -6.9,-5.41 -4.01,-3.699 -2.07,-9.609 -1.59,-14.299 0.1,0.029 0.3,0.1 0.4,0.129 0.59,1.211 1.25,2.381 1.98,3.511 0.36,-2.89 0.18,-5.83 -0.74,-8.601 C 24.9,94.8 24.18,93.53 23.82,92.9 z" id="path3661" style="fill:#040404"/><path d="m 97.24,94.21 c 0.53,0.51 0.53,0.51 0,0 z" id="path3663" style="fill:#acacac"/><path d="m 73.1,100.24 c 2.92,-1.66 0.28,3.33 0,0 z" id="path3665" style="fill:#bcbcbc"/><path d="m 55.12,101.33 c 3.32,0.21 -1.59,2.96 0,0 z" id="path3667" style="fill:#b8b8b8"/><path d="m 67.66,102.51 c 2.78,-0.33 5.689,-0.02 7.74,2.08 -2.509,-0.949 -5.2,-1.231 -7.74,-2.08 z" id="path3669" style="fill:#040404"/><path d="m 84.05,109.23 c -2.069,-1.73 1.15,-3.971 2.83,-4.381 -1.351,1.212 -2.83,2.371 -2.83,4.381 z" id="path3671" style="fill:#040404"/><path d="m 27,108.77 c 1.67,2.961 3.37,6.061 6.22,8.061 2.36,1.64 4.83,3.17 6.87,5.23 C 34.67,119.12 28.11,115.391 27,108.77 z" id="path3673" style="fill:#040404"/><path d="m 83.35,110.85 c 1.53,3.15 2.34,6.641 2.01,10.15 0.031,4.33 -2.68,7.92 -3.949,11.9 -0.381,0.26 -1.12,0.779 -1.49,1.039 1.16,-3.5 3.34,-6.56 4.38,-10.119 1.149,-4.37 -0.401,-8.67 -0.951,-12.97 z" id="path3675" style="fill:#040404"/><path d="m 43.34,112.061 c 2.92,-1.651 0.28,3.319 0,0 z" id="path3677" style="fill:#c0c0c0"/><path d="m 99.34,133.609 c 2,-0.84 3.061,-3.049 4.7,-4.43 -0.96,1.961 -2.42,3.58 -3.8,5.25 -5.27,-0.93 -10.5,2.99 -15.45,-0.029 4.94,1.161 9.62,-0.961 14.55,-0.791 z" id="path3679" style="fill:#040404"/><path d="m 57.08,133.16 c 3.09,0.64 5.7,2.8 8.91,2.96 3.51,0.39 6.99,-0.33 10.439,-0.88 -3.789,2.58 -8.66,1.56 -12.959,1.52 -2.17,-1.11 -4.45,-2.08 -6.39,-3.6 z" id="path3681" style="fill:#040404"/></svg>